<?xml version="1.0" encoding="UTF-8"?>
<svg id="Layer_0_Image" xmlns="http://www.w3.org/2000/svg" version="1.1" viewBox="0 0 40.8 40.8">
  <!-- Generator: Adobe Illustrator 29.1.0, SVG Export Plug-In . SVG Version: 2.1.0 Build 142)  -->
  <defs>
    <style>
      .st0 {
        fill: none;
        stroke: #000;
        stroke-miterlimit: 10;
        stroke-width: 1.2px;
      }
    </style>
  </defs>
  <path class="st0" d="M33.9,12l-13-7.5c-.3-.2-.7-.2-1,0l-13,7.5c-.3.2-.5.5-.5.9v15.1c0,.4.2.7.5.9l13,7.5c.3.2.7.2,1,0l13-7.5c.3-.2.5-.5.5-.9v-15.1c0-.4-.2-.7-.5-.9ZM32.6,28.5H8.1c-.8,0-1.3-.8-.9-1.5L19.5,5.7c.4-.7,1.3-.7,1.7,0l12.3,21.3c.4.7,0,1.5-.9,1.5Z"/>
</svg>