<?xml version="1.0" encoding="UTF-8"?>
<svg id="Layer_0_Image" data-name="Layer 0 Image" xmlns="http://www.w3.org/2000/svg" viewBox="0 0 40.799999 40.799999">
  <defs>
    <style>
      .cls-1 {
        stroke-width: 1.15px;
      }

      .cls-1, .cls-2 {
        fill: none;
        stroke: #000;
        stroke-miterlimit: 10;
      }

      .cls-2 {
        stroke-width: 2px;
      }
    </style>
  </defs>
  <path class="cls-2" d="M6.355359,12.868673v15.062654c0,.357265.190599.687393.5.866024l13.044641,7.531326c.309401.178635.690599.178635,1,0l13.044641-7.531326c.309402-.178633.5-.50876.5-.866024v-15.062654c0-.357266-.190598-.687393-.5-.866025l-13.04464-7.531327c-.309401-.178633-.690599-.178633-1,0l-13.044641,7.531327c-.309401.178633-.5.50876-.500002.866024Z"/>
  <path class="cls-1" d="M7.221385,27.008677L19.533976,5.682646c.384899-.666667,1.347151-.666667,1.732052,0l12.31259,21.326033c.384899.666668-.096226,1.5-.866024,1.5H8.08741c-.7698,0-1.250926-.833332-.866025-1.500002Z"/>
</svg>