<?xml version="1.0" encoding="UTF-8"?>
<svg id="Layer_1" xmlns="http://www.w3.org/2000/svg" version="1.1" viewBox="0 0 256 256">
  <!-- Generator: Adobe Illustrator 29.1.0, SVG Export Plug-In . SVG Version: 2.1.0 Build 142)  -->
  <defs>
    <style>
      .st0 {
        fill: none;
        stroke: #000;
        stroke-miterlimit: 10;
        stroke-width: 9px;
      }

      .st1 {
        display: none;
      }
    </style>
  </defs>
  <path class="st1" d="M192.7,53H63.3c-5.7,0-10.3,4.6-10.3,10.3v129.4c0,5.7,4.6,10.3,10.3,10.3h129.4c5.7,0,10.3-4.6,10.3-10.3V63.3c0-5.7-4.6-10.3-10.3-10.3ZM192.3,182c0,5.7-4.6,10.3-10.3,10.3h-108c-5.7,0-10.3-4.6-10.3-10.3v-108c0-5.7,4.6-10.3,10.3-10.3h108c5.7,0,10.3,4.6,10.3,10.3v108Z"/>
  <rect class="st0" x="53" y="53" width="150" height="150" rx="6" ry="6"/>
</svg>