<?xml version="1.0" encoding="UTF-8"?>
<svg id="Layer_2" xmlns="http://www.w3.org/2000/svg" version="1.1" viewBox="0 0 40.8 40.8">
  <!-- Generator: Adobe Illustrator 29.1.0, SVG Export Plug-In . SVG Version: 2.1.0 Build 142)  -->
  <defs>
    <style>
      .st0 {
        fill: none;
        stroke: #000;
        stroke-miterlimit: 10;
        stroke-width: 1.2px;
      }
    </style>
  </defs>
  <path class="st0" d="M35.5,25.6l-5.5,7.5c-.1.2-.3.3-.5.4l-8.8,2.9c-.2,0-.4,0-.6,0l-8.8-2.9c-.2,0-.4-.2-.5-.4l-5.5-7.5c-.1-.2-.2-.4-.2-.6v-9.3c0-.2,0-.4.2-.6l5.5-7.5c.1-.2.3-.3.5-.4l8.8-2.9c.2,0,.4,0,.6,0l8.8,2.9c.2,0,.4.2.5.4l5.5,7.5c.1.2.2.4.2.6v9.3c0,.2,0,.4-.2.6Z"/>
  <path class="st0" d="M19.8,10.9l-8.4,6.1c-.4.3-.5.7-.4,1.1l3.2,9.8c.1.4.5.7,1,.7h10.3c.4,0,.8-.3,1-.7l3.2-9.8c.1-.4,0-.9-.4-1.1l-8.4-6.1c-.4-.3-.8-.3-1.2,0Z"/>
  <line class="st0" x1="20.4" y1="4.3" x2="20.4" y2="10.5"/>
  <line class="st0" x1="29.9" y1="17.4" x2="35.7" y2="15.4"/>
  <line class="st0" x1="26.3" y1="28.7" x2="29.8" y2="33.4"/>
  <line class="st0" x1="14.5" y1="28.7" x2="10.9" y2="33.4"/>
  <line class="st0" x1="10.9" y1="17.4" x2="5.1" y2="15.4"/>
</svg>