<?xml version="1.0" encoding="UTF-8"?>
<svg id="Layer_1" data-name="Layer 1" xmlns="http://www.w3.org/2000/svg" viewBox="0 0 3872.9839 3872.9839">
  <defs>
    <style>
      .cls-1 {
        fill-rule: evenodd;
      }
    </style>
  </defs>
  <path class="cls-1" d="M1934.561527,3588.950187c-10.75534,0-21.51124-2.6787-29.57474-8.0635l-1323.0512-798.6767c-16.127-10.7422-26.8829-29.5742-26.8829-48.4073v-1594.6215c0-21.524379,10.7559-40.343279,26.8829-51.099179L1904.986787,292.097687c18.8194-10.7559,40.3306-10.7559,59.1626,0l1323.0381,795.984321c16.127,10.7559,26.8965,29.574799,26.8965,51.099179v1594.6479c0,21.5117-10.7695,40.3438-26.8965,48.4072l-1323.0381,795.9717c-8.0893,8.0635-18.832,10.7422-29.58786,10.7422h0ZM670.685987,2701.548787l1263.87554,761.0391,1263.90136-761.0391v-1530.113681L1934.561527,410.409687l-1263.87554,761.025419v1530.113681Z"/>
  <path class="cls-1" d="M611.523387,1198.343806c-26.8955,0-51.0991-18.8321-56.4707-43.035699-8.0634-32.267099,10.7559-61.854998,43.023-69.918398l1323.0513-322.695822c32.2539-8.0635,61.8549,10.7553,69.9184,43.0356,8.0635,32.2671-10.769,61.855-43.0356,69.9185l-1323.0386,322.695819c-2.6919-2.6919-8.0767,0-13.4478,0Z"/>
  <path class="cls-1" d="M3257.613287,1198.343806c-5.3848,0-8.0635,0-13.4482-2.6919l-1323.0513-322.696319c-32.2671-8.0635-51.086-40.3433-43.0225-69.9185,8.0635-29.5879,40.3301-51.0991,69.9185-43.0356l1323.0508,322.696322c32.2539,8.063378,51.0859,40.343199,43.0234,69.918378-5.3848,26.895519-29.5752,45.727619-56.4707,45.727619Z"/>
  <path class="cls-1" d="M3257.613287,2790.273487c-8.0635,0-16.127-2.6788-26.8965-5.3575l-368.397523-182.8593H1004.137687l-365.7314,182.8593c-29.5752,13.4473-64.5342,2.6787-77.982-26.8965-13.4477-29.5742-2.6924-64.5332,26.8955-77.9814l376.4746-188.2441c8.0635-2.6788,16.127-5.3575,26.8824-5.3575l1887.769476-.0263c8.0635,0,18.832,2.705,26.895499,5.3838l381.845724,188.2441c29.5752,13.4482,40.3438,48.4072,26.8965,77.9814-13.4482,21.5118-34.96,32.254-56.4707,32.254Z"/>
  <path class="cls-1" d="M990.676787,2602.056687c-10.7554,0-18.8189-2.7061-26.8824-8.0645-26.896-16.127-37.6513-51.1123-24.2036-77.9814l946.5772-1729.1133c16.1269-26.8828,51.085919-37.6387,77.9814-24.1905,26.896,16.127,37.6387,51.0992,24.1905,77.9815l-946.5635,1731.793c-10.7559,18.8056-32.2671,29.5752-51.0996,29.5752Z"/>
  <path class="cls-1" d="M2875.741187,2602.056687c-21.511723,0-40.317423-10.7696-51.085922-29.5752l-941.192878-1729.1138c-16.1269-26.8823-5.3711-64.5337,24.1904-77.9819,26.89555-16.127,64.5342-5.3711,77.982,24.2036l941.218675,1729.1001c16.127025,26.8965,5.3584,64.5341-24.216799,77.9824-8.0634,5.3848-16.1269,5.3848-26.895476,5.3848Z"/>
  <path class="cls-1" d="M990.676787,2602.056687c-24.1905,0-48.3936-16.127-56.4702-40.3438l-376.4747-1236.993185c-8.0634-29.574699,8.0635-61.854898,37.6514-72.597598,29.5747-8.0762,61.855,8.0635,72.5977,37.638699l376.4873,1236.992084c8.0635,29.5752-8.0767,61.8555-37.6514,72.5977-5.3711,2.7061-10.7554,2.7061-16.1401,2.7061Z"/>
  <path class="cls-1" d="M2875.741187,2602.056687c-5.358424,0-10.743123,0-16.126923-2.7061-29.575199-10.7422-48.407299-43.0225-37.638699-72.5977l381.845722-1236.992084c10.7686-29.575199,43.0225-48.394099,72.5977-37.638699,29.6005,10.7558,48.4072,43.022899,37.665,72.597598l-381.872125,1236.993185c-8.0634,24.2168-29.575199,40.3438-56.470675,40.3438Z"/>
  <path class="cls-1" d="M1934.561527,3588.950187c-16.12694,0-29.57474-5.3584-43.02244-18.8057l-943.8848-984.2148c-21.5112-24.2168-21.5112-59.1768,2.6924-83.3672,24.2031-21.5107,59.1626-21.5107,83.3662,2.6797l943.8848,984.2148c21.5112,24.1905,21.5112,59.1758-2.7056,83.3663-10.7427,10.7685-24.1904,16.1269-40.33056,16.1269Z"/>
  <path class="cls-1" d="M1934.561527,3588.950187c-13.44774,0-29.57474-5.3584-40.33004-16.1269-24.2037-21.5108-24.2037-59.1495-2.6924-83.3663l941.179677-984.2148c21.537099-24.1904,59.175699-24.1904,83.366198-2.6797,24.216825,21.5117,24.216825,59.1504,2.7051,83.3672l-941.192375,984.2148c-10.7691,13.4473-26.896,18.8057-43.03616,18.8057Z"/>
  <path class="cls-1" d="M1934.561527,872.955587c-32.26664,0-59.14944-26.8955-59.14944-59.1626v-470.5962c0-32.2803,26.8828-59.1626,59.14944-59.1626,32.26706,0,59.16306,26.8823,59.16306,59.1626v473.2886c0,29.5747-26.896,56.4702-59.16306,56.4702Z"/>
</svg>